<svg width="400" height="400" viewBox="0 0 400 400" fill="none" xmlns="http://www.w3.org/2000/svg">
<path d="M134.906 28.9063C154.74 20.5729 176.74 16.4062 199.74 16.4062C301.073 16.4062 383.073 98.4062 383.073 199.74C383.073 301.073 301.073 383.073 199.74 383.073C98.4062 383.073 16.4062 301.073 16.4062 199.74C16.4062 176.74 20.5729 154.74 28.4063 134.406C36.4788 142.654 46.3459 148.928 57.2396 152.74C52.4063 167.573 49.7396 183.073 49.7396 199.74C49.7396 239.522 65.5431 277.675 93.6736 305.806C121.804 333.936 159.957 349.74 199.74 349.74C239.522 349.74 277.675 333.936 305.806 305.806C333.936 277.675 349.74 239.522 349.74 199.74C349.74 159.957 333.936 121.804 305.806 93.6736C277.675 65.5431 239.522 49.7396 199.74 49.7396C183.073 49.7396 167.573 52.4063 152.74 57.2396C149.073 46.9063 143.24 37.0729 134.906 28.9063V28.9063ZM81.9062 48.5729C90.7468 48.5729 99.2253 52.0848 105.476 58.336C111.728 64.5872 115.24 73.0657 115.24 81.9062C115.24 90.7468 111.728 99.2253 105.476 105.476C99.2253 111.728 90.7468 115.24 81.9062 115.24C73.0657 115.24 64.5872 111.728 58.336 105.476C52.0848 99.2253 48.5729 90.7468 48.5729 81.9062C48.5729 63.4062 63.4062 48.5729 81.9062 48.5729V48.5729ZM199.74 116.406C221.841 116.406 243.037 125.186 258.665 140.814C274.293 156.442 283.073 177.638 283.073 199.74C283.073 221.841 274.293 243.037 258.665 258.665C243.037 274.293 221.841 283.073 199.74 283.073C177.638 283.073 156.442 274.293 140.814 258.665C125.186 243.037 116.406 221.841 116.406 199.74C116.406 177.638 125.186 156.442 140.814 140.814C156.442 125.186 177.638 116.406 199.74 116.406V116.406Z" fill="black"/>
</svg>
