<svg width="889" height="451" viewBox="0 0 889 451" fill="none" xmlns="http://www.w3.org/2000/svg">
<path d="M134.906 54.9063C154.74 46.5729 176.74 42.4062 199.74 42.4062C301.073 42.4062 383.073 124.406 383.073 225.74C383.073 327.073 301.073 409.073 199.74 409.073C98.4062 409.073 16.4062 327.073 16.4062 225.74C16.4062 202.74 20.5729 180.74 28.4063 160.406C36.4788 168.654 46.3459 174.928 57.2396 178.74C52.4063 193.573 49.7396 209.073 49.7396 225.74C49.7396 265.522 65.5431 303.675 93.6736 331.806C121.804 359.936 159.957 375.74 199.74 375.74C239.522 375.74 277.675 359.936 305.806 331.806C333.936 303.675 349.74 265.522 349.74 225.74C349.74 185.957 333.936 147.804 305.806 119.674C277.675 91.5431 239.522 75.7396 199.74 75.7396C183.073 75.7396 167.573 78.4063 152.74 83.2396C149.073 72.9063 143.24 63.0729 134.906 54.9063V54.9063ZM81.9062 74.5729C90.7468 74.5729 99.2253 78.0848 105.476 84.336C111.728 90.5872 115.24 99.0657 115.24 107.906C115.24 116.747 111.728 125.225 105.476 131.476C99.2253 137.728 90.7468 141.24 81.9062 141.24C73.0657 141.24 64.5872 137.728 58.336 131.476C52.0848 125.225 48.5729 116.747 48.5729 107.906C48.5729 89.4062 63.4062 74.5729 81.9062 74.5729V74.5729ZM199.74 142.406C221.841 142.406 243.037 151.186 258.665 166.814C274.293 182.442 283.073 203.638 283.073 225.74C283.073 247.841 274.293 269.037 258.665 284.665C243.037 300.293 221.841 309.073 199.74 309.073C177.638 309.073 156.442 300.293 140.814 284.665C125.186 269.037 116.406 247.841 116.406 225.74C116.406 203.638 125.186 182.442 140.814 166.814C156.442 151.186 177.638 142.406 199.74 142.406V142.406Z" fill="white"/>
<path d="M426.13 83.2891H525.576C546.38 83.2891 564.239 86.4222 579.153 92.6885C594.067 98.9548 605.534 108.229 613.555 120.511C621.576 132.793 625.586 147.894 625.586 165.816C625.586 179.978 623.079 192.26 618.066 202.662C613.053 213.064 605.972 221.774 596.824 228.792C587.8 235.81 577.148 241.325 564.866 245.335L548.699 253.606H460.908L460.532 212.813H526.14C536.793 212.813 545.628 210.933 552.646 207.173C559.665 203.414 564.928 198.213 568.438 191.57C572.072 184.928 573.889 177.346 573.889 168.824C573.889 159.675 572.135 151.779 568.625 145.137C565.116 138.37 559.79 133.169 552.646 129.534C545.503 125.9 536.479 124.083 525.576 124.083H477.827V357H426.13V83.2891ZM580.657 357L517.305 234.432L572.009 234.244L636.113 354.368V357H580.657ZM775.789 234.996H705.857L705.481 198.526H765.449C775.726 198.526 784.311 197.085 791.204 194.202C798.097 191.32 803.298 187.121 806.807 181.607C810.441 176.093 812.258 169.388 812.258 161.492C812.258 152.719 810.566 145.576 807.183 140.062C803.924 134.547 798.786 130.537 791.768 128.03C784.749 125.398 775.851 124.083 765.073 124.083H722.588V357H670.891V83.2891H765.073C780.614 83.2891 794.462 84.793 806.619 87.8008C818.901 90.6833 829.303 95.195 837.825 101.336C846.347 107.477 852.801 115.184 857.188 124.458C861.699 133.733 863.955 144.761 863.955 157.544C863.955 168.824 861.323 179.226 856.06 188.75C850.921 198.15 842.963 205.795 832.185 211.685C821.532 217.575 807.997 220.959 791.58 221.836L775.789 234.996ZM773.533 357H690.63L712.249 316.395H773.533C783.809 316.395 792.269 314.703 798.911 311.319C805.679 307.935 810.692 303.298 813.95 297.408C817.334 291.392 819.026 284.499 819.026 276.729C819.026 268.207 817.522 260.813 814.514 254.546C811.632 248.28 806.995 243.455 800.603 240.071C794.337 236.688 786.065 234.996 775.789 234.996H722.024L722.4 198.526H790.828L802.671 212.625C818.462 212.75 831.308 215.883 841.208 222.024C851.235 228.165 858.629 236.061 863.391 245.711C868.153 255.361 870.535 265.763 870.535 276.917C870.535 294.463 866.712 309.188 859.067 321.094C851.548 333 840.519 341.961 825.981 347.977C811.569 353.992 794.086 357 773.533 357Z" fill="white"/>
</svg>
